<svg width="368" height="109" viewBox="0 0 368 109" fill="none" xmlns="http://www.w3.org/2000/svg">
<path d="M70.0518 0C76.1066 0.000455664 81.0166 4.90892 81.0166 10.9648V29.9795C81.4097 29.8575 81.8275 29.792 82.2607 29.792C84.0753 29.7921 85.62 30.9446 86.2041 32.5576L87.7383 29.791L87.9121 29.5C88.8287 28.0816 90.4073 27.2148 92.1113 27.2148H97.2686C103.323 27.2153 108.233 32.1238 108.233 38.1797V69.8682C108.233 75.7346 103.626 80.5243 97.833 80.8184L97.2686 80.833H90.9971C89.4632 80.833 88.0294 80.1295 87.0889 78.9502C85.1893 81.3621 83.0297 83.5711 80.7939 85.4922C80.6572 85.9355 80.4613 86.3566 80.2109 86.7432C80.7283 87.5409 81.0166 88.4824 81.0166 89.4639V97.2686C81.0165 103.135 76.409 107.925 70.6162 108.219L70.0518 108.233H38.3643C32.3092 108.233 27.3996 103.324 27.3994 97.2686V89.5107C27.3994 88.5289 27.6867 87.5866 28.2041 86.7891C27.9885 86.4561 27.8146 86.097 27.6826 85.7207C25.4591 83.8379 23.3013 81.67 21.3926 79.2969C20.4613 80.2653 19.1665 80.833 17.79 80.833H10.9648C5.09907 80.8326 0.308522 76.2259 0.0146484 70.4326L0 69.8682V38.1797C0 32.1238 4.90988 27.2152 10.9648 27.2148H27.3994V10.9648C27.3994 4.90895 32.3093 0.000384835 38.3643 0H70.0518ZM76.0166 89.4639C75.6772 89.6333 75.3393 89.8439 75.0059 90.0859C71.6673 93.3019 71.9072 96.0378 72.0566 96.5029L73.1074 99.7686H54.9189L54.2988 98.1748C54.23 97.9977 54.1667 97.8067 54.1045 97.6025C54.0422 97.807 53.9791 97.9984 53.9102 98.1758L53.29 99.7695H35.1006L36.1523 96.5029C36.3062 96.0235 36.5554 93.1381 32.8975 89.7998C32.732 89.6946 32.566 89.5977 32.3994 89.5107V97.2686C32.3995 100.563 35.0702 103.233 38.3643 103.233H70.0518C73.3458 103.233 76.0165 100.563 76.0166 97.2686V89.4639ZM58.4805 90.5205C58.4593 91.1616 58.4527 91.7428 58.459 92.2686H66.4912C66.7393 91.8847 67.0102 91.4834 67.3018 91.0742C66.1054 90.2859 65.3142 89.0296 65.1074 87.6318L58.4805 90.5205ZM43.1826 88.2734C42.8598 89.4445 42.1181 90.4744 41.0723 91.1484C41.3434 91.5314 41.5967 91.9073 41.8301 92.2686H48.2871L43.1826 88.2734ZM32.3994 83.1084C32.903 83.4978 33.4071 83.8715 33.9111 84.2256C34.6116 84.7176 35.2513 85.2208 35.8359 85.7285L38.3643 86.9473V84.502L32.3994 79.834V83.1084ZM70.0518 85.459V86.9014L72.2334 85.8496C72.8551 85.3003 73.5415 84.7569 74.2979 84.2256C74.8712 83.8229 75.4443 83.3945 76.0166 82.9463V80.8203L70.0518 85.459ZM19.3213 62.4189C19.4631 66.2596 21.0877 70.2355 23.665 73.9854C24.775 75.6002 26.043 77.1418 27.3994 78.5781V78.4062C27.3994 77.6501 27.5679 76.9325 27.8691 76.2891L27.5 76L26.583 72.9443C26.3961 72.7586 26.2085 72.5711 26.0225 72.3799C23.4332 69.718 20.7574 66.3238 19.415 62.7266L19.3857 62.6494L19.3623 62.5713C19.3472 62.5209 19.3355 62.469 19.3213 62.4189ZM80.8369 77.0703C80.9499 77.4818 81.0125 77.9141 81.0156 78.3604C82.17 77.1204 83.2549 75.8028 84.2305 74.4307L80.8369 77.0703ZM38.3643 5C35.0702 5.00021 32.3994 7.67069 32.3994 10.9648V32.2148H10.9648C7.67074 32.2151 5 34.8855 5 38.1797V69.8682C5.00008 73.1622 7.67079 75.8328 10.9648 75.833H17.79C16.8458 74.1454 15.9749 71.7375 15.3916 69.8682H10.9648V38.1797H19.8037L20 37L26.1348 38.1797H33.377L38.3643 20.7246V10.9648H66.9014L70 10.5L73.3848 34.1934L76.0166 31.5625V10.9648C76.0166 7.67072 73.3458 5.00025 70.0518 5H38.3643ZM89.0771 37.6885L89.1328 38.1797H97.2686V69.8682H93.3945C92.8112 71.7374 91.9412 74.1454 90.9971 75.833H97.2686C100.563 75.8328 103.233 73.1622 103.233 69.8682V38.1797C103.233 34.8856 100.563 32.2151 97.2686 32.2148H92.1113L89.0771 37.6885ZM19.542 49.4736C19.5327 51.6679 19.4909 54.4704 19.4131 57.7314C19.5755 57.3361 19.7788 56.9633 20.0234 56.6172C20.3315 56.1815 20.6847 55.8195 21.0312 55.5234C20.913 54.8599 20.8333 54.2125 20.7754 53.585L19.542 49.4736ZM77.334 38.166L79.0752 37.9922L79.208 37.8672L78.375 37.1973L77.334 38.166ZM82.2607 33.1797C82.0293 33.1797 81.822 33.2782 81.6748 33.4346L82.9229 34.4385C82.9969 34.3304 83.0485 34.2055 83.0625 34.0684L83.0664 33.9863L83.0625 33.9033C83.0239 33.5241 82.722 33.2231 82.3428 33.1846L82.2607 33.1797Z" fill="#023E38"/>
<path d="M76.0166 97.2686C76.0165 100.563 73.3458 103.233 70.0518 103.233H38.3643C35.0702 103.233 32.3995 100.563 32.3994 97.2686V89.5107C34.8737 90.8018 37.2548 94.2273 38.3643 96.1895V97.2686H70.0518V96.0234C71.2131 94.0136 73.5771 90.6816 76.0166 89.4639V97.2686ZM38.3643 86.9473L32.3994 84.0723V78.4062C34.5749 78.3457 36.6611 78.2371 38.3643 78.1201V86.9473ZM70.0518 78.0947C71.7244 78.2147 73.8158 78.3285 76.0166 78.3955V84.0264L70.0518 86.9014V78.0947ZM70.0518 77.3438V69.8682H73.8906L70.0518 77.3438ZM38.3643 76.6221L34.8955 69.8682H38.3643V76.6221ZM70.0518 5C73.3458 5.00025 76.0166 7.67072 76.0166 10.9648V31.5625L70.0518 37.5273V10.9648H38.3643V38.1797H10.9648V69.8682H15.3916C15.9749 71.7375 16.8458 74.1454 17.79 75.833H10.9648C7.67079 75.8328 5.00008 73.1622 5 69.8682V38.1797C5 34.8855 7.67074 32.2151 10.9648 32.2148H32.3994V10.9648C32.3994 7.67069 35.0702 5.00021 38.3643 5H70.0518ZM97.2686 32.2148C100.563 32.2151 103.233 34.8856 103.233 38.1797V69.8682C103.233 73.1622 100.563 75.8328 97.2686 75.833H90.9971C91.9412 74.1454 92.8112 71.7374 93.3945 69.8682H97.2686V38.1797H88.8057L92.1113 32.2148H97.2686Z" fill="#009385"/>
<path d="M85.6133 45.729C86.3628 42.208 91.2051 41.2563 91.2051 45.5435C91.1119 47.8737 91.1679 53.6335 91.3916 61.3872C91.6712 71.08 83.5622 80.7732 75.7334 86.272C69.471 90.6707 69.0857 95.4359 69.6758 97.269H56.6279C55.9756 95.5916 55.5096 91.5834 56.6279 83.1958C57.7463 74.8078 66.8803 70.6139 69.7695 69.3091C72.6587 68.0042 77.225 64.4626 79.2754 60.7349C80.9153 57.7532 83.0026 57.752 83.8418 58.1245C84.8981 58.4352 86.5447 59.9145 84.6807 63.3442C82.3505 67.6315 76.1995 74.2484 73.7764 76.2056C76.852 74.2484 84.1221 68.0974 86.4521 61.853C87.5511 58.1898 85.2303 57.1354 84.3535 56.6577C85.4208 52.9663 84.789 49.6028 85.6133 45.729Z" fill="white"/>
<path d="M22.5947 45.73C21.8455 42.2087 17.0029 41.2562 17.0029 45.5435C17.0961 47.8736 17.0401 53.6334 16.8164 61.3872C16.5368 71.08 24.6458 80.7732 32.4746 86.272C38.7376 90.671 39.1225 95.4371 38.5322 97.27H51.5801C52.2325 95.5928 52.6985 91.5838 51.5801 83.1958C50.4616 74.8081 41.3289 70.614 38.4395 69.3091C35.5503 68.0043 30.983 64.4628 28.9326 60.7349C27.2923 57.7525 25.2051 57.7527 24.3662 58.1255V58.1245C23.3099 58.4352 21.6633 59.9145 23.5273 63.3442C25.8573 67.6313 32.0083 74.2482 34.4316 76.2056C31.3559 74.2482 24.0869 68.0972 21.7568 61.853C20.6579 58.19 22.9776 57.1354 23.8545 56.6577C22.7874 52.9665 23.4188 49.6036 22.5947 45.73Z" fill="white"/>
<path d="M48.7452 73.2871C45.9631 68.5214 27.7379 63.4754 27.7383 48.8047C43.661 54.7851 69.56 53.0097 80.3032 48.8047C77.8093 65.905 64.0924 66.746 59.8718 73.2871C56.4954 74.1841 51.0472 73.6608 48.7452 73.2871Z" fill="white"/>
<path d="M78.2532 33.8921L64.5527 46.6605C67.6097 46.9588 72.2884 46.3499 74.2456 46.0081L83.0064 37.7133L78.2532 33.8921Z" fill="white"/>
<path d="M66.0449 21.4038C65.9518 26.8095 66.9763 36.1297 54.208 41.6284C52.8101 42.3739 51.8779 42.4671 51.8779 45.729C46.4722 30.2578 59.5208 24.759 66.0449 21.4038ZM57.6553 31.562C53.9273 33.7988 52.3732 38.832 52.0625 41.0688C53.4605 36.4088 57.0961 32.3076 57.6553 31.562Z" fill="white"/>
<path d="M49.1709 41.4297C49.2363 41.912 49.3209 42.4031 49.4238 42.9033C39.6984 43.1813 32.4038 44.3404 32.4033 45.7285C32.4047 47.324 42.0432 48.6182 53.9326 48.6182C62.3401 48.6181 69.6215 47.9686 73.166 47.0254C73.6411 46.9566 74.0572 46.8933 74.3916 46.835L74.6406 46.791L74.8242 46.6182L77.5029 44.0811C79.1806 44.7201 80.1221 45.4371 80.1221 46.1953C80.1201 48.8715 68.3959 51.0409 53.9336 51.041C39.4709 51.041 27.7462 48.8716 27.7441 46.1953C27.7441 43.8197 36.9808 41.8442 49.1709 41.4297ZM70.335 42.418C72.3957 42.7247 74.2001 43.088 75.6797 43.4951L74.3086 44.7939C73.2095 44.3628 71.3716 43.9769 68.9971 43.665L70.335 42.418ZM58.3867 41.4189C61.9507 41.532 65.2686 41.7791 68.1855 42.1299L66.8086 43.4131C63.6478 43.0964 59.8162 42.8947 55.6514 42.8506C56.6396 42.3971 57.5493 41.9187 58.3867 41.4189Z" fill="white"/>
<circle cx="82.2604" cy="33.986" r="4.19401" fill="white"/>
<path d="M134.067 42.3337C135.35 42.3337 136.523 42.129 137.587 41.7197C138.651 41.3104 139.552 40.7238 140.288 39.9597C141.052 39.1957 141.639 38.2953 142.048 37.2584C142.485 36.2215 142.703 35.0618 142.703 33.7793V33.6975C142.703 32.4423 142.485 31.2826 142.048 30.2184C141.639 29.1542 141.052 28.2401 140.288 27.4761C139.552 26.7121 138.651 26.1254 137.587 25.7161C136.523 25.2795 135.35 25.0612 134.067 25.0612H129.196V42.3337H134.067ZM122.893 19.372H134.067C136.305 19.372 138.351 19.7403 140.207 20.4771C142.089 21.1865 143.699 22.1825 145.036 23.465C146.401 24.7474 147.451 26.2618 148.188 28.0082C148.925 29.7272 149.293 31.5964 149.293 33.6156V33.6975C149.293 35.7167 148.925 37.5994 148.188 39.3458C147.451 41.0921 146.401 42.6065 145.036 43.889C143.699 45.1715 142.089 46.1811 140.207 46.9178C138.351 47.6546 136.305 48.0229 134.067 48.0229H122.893V19.372ZM166.861 48.4732C163.014 48.4732 159.985 47.409 157.775 45.2806C155.565 43.1523 154.459 39.9734 154.459 35.744V19.372H160.763V35.5802C160.763 37.9269 161.308 39.7005 162.4 40.9011C163.491 42.0745 165.006 42.6611 166.943 42.6611C168.88 42.6611 170.395 42.0881 171.486 40.9421C172.578 39.796 173.124 38.077 173.124 35.7849V19.372H179.427V35.5393C179.427 37.7222 179.127 39.6187 178.526 41.2286C177.953 42.8385 177.121 44.1892 176.03 45.2806C174.938 46.3448 173.615 47.1498 172.059 47.6955C170.504 48.214 168.771 48.4732 166.861 48.4732ZM202.301 36.0305L198.494 26.7394L194.688 36.0305H202.301ZM195.67 19.1673H201.482L213.761 48.0229H207.172L204.552 41.5969H192.437L189.817 48.0229H183.391L195.67 19.1673ZM134.19 72.8202C135.772 72.8202 137 72.4109 137.874 71.5923C138.747 70.7465 139.183 69.7096 139.183 68.4817V68.3998C139.183 66.9809 138.719 65.9031 137.792 65.1663C136.891 64.4296 135.65 64.0612 134.067 64.0612H129.196V72.8202H134.19ZM122.893 58.372H134.599C136.318 58.372 137.846 58.6175 139.183 59.1087C140.548 59.5726 141.694 60.2411 142.621 61.1143C143.576 61.9874 144.3 63.038 144.791 64.2659C145.309 65.4665 145.568 66.8035 145.568 68.277V68.3589C145.568 70.0234 145.268 71.4832 144.668 72.7384C144.068 73.9936 143.235 75.0441 142.171 75.89C141.134 76.7359 139.906 77.3771 138.488 77.8137C137.096 78.223 135.595 78.4277 133.985 78.4277H129.196V87.0229H122.893V58.372ZM150.233 58.372H156.536V69.7096H168.16V58.372H174.464V87.0229H168.16V75.5216H156.536V87.0229H150.233V58.372ZM197.784 75.0305L193.978 65.7394L190.171 75.0305H197.784ZM191.154 58.1673H196.966L209.245 87.0229H202.655L200.035 80.5969H187.92L185.301 87.0229H178.875L191.154 58.1673ZM226.355 72.2882C227.91 72.2882 229.097 71.9198 229.916 71.183C230.762 70.4463 231.185 69.464 231.185 68.2361V68.1542C231.185 66.7899 230.748 65.7666 229.875 65.0845C229.002 64.4023 227.787 64.0612 226.232 64.0612H219.97V72.2882H226.355ZM213.667 58.372H226.764C230.393 58.372 233.177 59.3406 235.114 61.278C236.751 62.9152 237.57 65.0981 237.57 67.8268V67.9086C237.57 70.228 236.997 72.1244 235.851 73.5979C234.732 75.0441 233.258 76.1083 231.43 76.7905L238.429 87.0229H231.062L224.922 77.8546H224.84H219.97V87.0229H213.667V58.372ZM243.245 58.372H250.039L257.57 70.4872L265.102 58.372H271.896V87.0229H265.634V68.3179L257.57 80.556H257.407L249.425 68.4407V87.0229H243.245V58.372ZM295.233 75.0305L291.426 65.7394L287.62 75.0305H295.233ZM288.602 58.1673H294.414L306.693 87.0229H300.103L297.484 80.5969H285.369L282.749 87.0229H276.323L288.602 58.1673ZM324.54 87.5141C322.439 87.5141 320.488 87.1321 318.687 86.3681C316.886 85.604 315.331 84.5672 314.021 83.2574C312.711 81.9203 311.688 80.3514 310.951 78.5504C310.215 76.7495 309.846 74.8258 309.846 72.7793V72.6975C309.846 70.651 310.215 68.7409 310.951 66.9673C311.688 65.1663 312.711 63.5974 314.021 62.2603C315.331 60.896 316.9 59.8318 318.728 59.0678C320.556 58.2765 322.576 57.8808 324.786 57.8808C326.123 57.8808 327.337 57.99 328.429 58.2082C329.547 58.4265 330.557 58.7267 331.457 59.1087C332.358 59.4907 333.19 59.9546 333.954 60.5003C334.718 61.0461 335.428 61.6464 336.082 62.3012L332.071 66.9263C330.953 65.9167 329.806 65.1254 328.633 64.5524C327.487 63.9794 326.191 63.6929 324.745 63.6929C323.544 63.6929 322.425 63.9248 321.389 64.3887C320.379 64.8525 319.506 65.4938 318.769 66.3124C318.032 67.131 317.459 68.086 317.05 69.1775C316.641 70.2417 316.436 71.3877 316.436 72.6156V72.6975C316.436 73.9254 316.641 75.085 317.05 76.1765C317.459 77.268 318.019 78.223 318.728 79.0416C319.465 79.8602 320.338 80.5151 321.348 81.0062C322.385 81.4701 323.517 81.7021 324.745 81.7021C326.382 81.7021 327.76 81.4019 328.879 80.8016C330.025 80.2013 331.157 79.3827 332.276 78.3458L336.287 82.3979C335.55 83.1892 334.786 83.8986 333.995 84.5262C333.204 85.1538 332.331 85.6995 331.375 86.1634C330.448 86.6 329.424 86.9274 328.306 87.1457C327.187 87.3913 325.932 87.5141 324.54 87.5141ZM349.396 75.7263L338.386 58.372H345.753L352.589 69.8733L359.547 58.372H366.71L355.699 75.6035V87.0229H349.396V75.7263Z" fill="#023E38"/>
</svg>
